<mxfile host="app.diagrams.net" modified="2024-05-15T16:11:58.501Z" agent="Mozilla/5.0 (X11; Linux x86_64; rv:125.0) Gecko/20100101 Firefox/125.0" version="24.4.0" etag="LbFeXUypI6kFDZUHIuE1" type="github">
  <diagram name="Strona-1" id="BUCgp1h_pNfVB2UKbChJ">
    <mxGraphModel>
      <root>
        <mxCell id="0" />
        <mxCell id="1" parent="0" />
      </root>
    </mxGraphModel>
  </diagram>
</mxfile>
